<?xml version="1.0" encoding="UTF-8" standalone="no"?>
<svg
   xmlns:dc="http://purl.org/dc/elements/1.1/"
   xmlns:cc="http://creativecommons.org/ns#"
   xmlns:rdf="http://www.w3.org/1999/02/22-rdf-syntax-ns#"
   xmlns:svg="http://www.w3.org/2000/svg"
   xmlns="http://www.w3.org/2000/svg"
   xmlns:sodipodi="http://sodipodi.sourceforge.net/DTD/sodipodi-0.dtd"
   xmlns:inkscape="http://www.inkscape.org/namespaces/inkscape"
   width="742"
   height="112"
   viewBox="0 0 196.32084 29.633333"
   version="1.1"
   id="svg73"
   inkscape:version="1.0.2 (e86c870879, 2021-01-15)"
   sodipodi:docname="app-top-icon.svg">
  <defs
     id="defs67" />
  <sodipodi:namedview
     id="base"
     pagecolor="#ffffff"
     bordercolor="#666666"
     borderopacity="1.0"
     inkscape:pageopacity="0.0"
     inkscape:pageshadow="2"
     inkscape:zoom="2.8"
     inkscape:cx="285.9538"
     inkscape:cy="212.16401"
     inkscape:document-units="mm"
     inkscape:current-layer="layer1"
     inkscape:document-rotation="0"
     showgrid="false"
     inkscape:window-width="2927"
     inkscape:window-height="1732"
     inkscape:window-x="95"
     inkscape:window-y="122"
     inkscape:window-maximized="0"
     units="px" />
  <metadata
     id="metadata70">
    <rdf:RDF>
      <cc:Work
         rdf:about="">
        <dc:format>image/svg+xml</dc:format>
        <dc:type
           rdf:resource="http://purl.org/dc/dcmitype/StillImage" />
        <dc:title></dc:title>
      </cc:Work>
    </rdf:RDF>
  </metadata>
  <g
     inkscape:label="Calque 1"
     inkscape:groupmode="layer"
     id="layer1">
    <path
       style="fill:#dcb000;fill-opacity:1;stroke:none;stroke-width:0.0438708"
       d="m 9.3885228,21.888154 c -3.0827199,-2.42555 -1.4251099,-7.46247 2.1620402,-8.26114 1.02039,-0.22716 2.086676,-0.0976 3.036366,0.33286 0.72843,0.33018 1.28168,0.82342 2.10718,0.93283 0.48065,0.0638 1.10713,0.0604 1.55432,-0.15165 0.47617,-0.22571 0.66255,-0.88927 1.28406,-0.32904 0.17675,-0.17672 0.50492,-0.39987 0.59713,-0.63455 0.0727,-0.18476 -0.14074,-0.41416 -0.11738,-0.62569 0.0656,-0.59416 0.74504,-0.70683 1.13342,-0.35289 l 0.5584,-0.55838 c -0.58454,-0.69713 0.22841,-1.46534 0.93063,-0.93063 l 5.92577,-5.9257702 2.7609,-2.760885 c 0.42605,-0.42605 0.86954,-1.035184 1.3937,-1.336184 0.98545,-0.56579599 2.47006,0.566604 2.44432,1.643554 -0.0178,0.74574 -0.75062,1.258435 -1.23223,1.740045 l 1.14778,1.14777 c 0.0976,-0.0976 0.23981,-0.30475 0.38545,-0.32166 0.12054,-0.0134 0.2218,0.12263 0.29703,0.19759 0.1788,0.17807 0.72457,0.55872 0.75165,0.81541 0.0285,0.26963 -0.66352,0.7716 -0.84472,0.95279 -0.25648,0.25649 -0.72732,0.94157 -1.10358,0.97894 -0.24879,0.0247 -0.50716,-0.35616 -0.66463,-0.5136 l -1.61311,-1.61313 c -0.10316,0.10316 -0.3038,0.24293 -0.30382,0.40327 2e-5,0.17842 0.25126,0.35074 0.36587,0.46533 l 1.1788,1.17883 c 0.17121,0.17119 0.58084,0.44043 0.46678,0.71859 -0.16699,0.4074 -0.74693,0.8024498 -1.05619,1.1116402 -0.10389,0.10392 -0.24055,0.29519 -0.40327,0.29521 -0.23269,-2e-5 -1.00775,-0.7806904 -1.01265,-1.0133502 -0.003,-0.16718 0.22304,-0.32249 0.33019,-0.42966 l -1.1478,-1.14777 -4.37468,4.3746802 c -0.38142,0.38142 -0.99529,0.80849 -1.25865,1.27836 -0.109,0.19453 0.11335,0.44395 0.09,0.66161 -0.0635,0.58977 -0.73424,0.68478 -1.12688,0.35561 l -0.55838,0.55838 c 0.5835,0.64754 -0.25923,1.51062 -0.89963,0.89963 l -0.71349,0.71349 c 0.22109,0.26376 0.3002,0.63764 0.0474,0.91603 -0.13625,0.14995 -0.33106,0.19543 -0.40787,0.39868 -0.18246,0.48281 -0.19531,1.0832 -0.12114,1.58645 0.11455,0.77663 0.59208,1.31859 0.90875,2.00727 0.40385,0.87835 0.55418,1.84595 0.39708,2.80259 -0.43927,2.67435 -3.1111,4.50588 -5.76606,3.93135 -1.02223,-0.22125 -1.80919,-0.77321 -2.53439,-1.4984 -0.637,0.637 -1.388926,1.08535 -2.305686,1.1687 -2.5482902,0.23168 -4.5019001,-2.33203 -3.6733902,-4.72812 0.19794,-0.57243 0.56381,-1.01417 0.98466,-1.43501 m 0.6917702,3.83734 c 0.72276,0.96617 2.81813,1.2909 3.37205,-0.0772 0.118876,-0.29347 -0.16714,-0.84639 -0.21681,-1.15471 -0.0437,-0.27147 0.006,-0.66672 -0.16007,-0.89466 -0.34371,-0.47028 -0.70239,-0.48406 -1.2394,-0.55983 -0.32427,-0.0458 -0.83458,-0.33058 -1.14704,-0.26027 -0.24852,0.0558 -0.4442,0.31533 -0.58699,0.50532 -0.5350302,0.71181 -0.5613302,1.72005 -0.0218,2.44136 m 1.78992,-4.14754 c 0.0587,-0.55598 -0.0596,-1.07586 0.10272,-1.63446 0.44764,-1.53996 2.037196,-2.84395 3.712886,-2.55343 l 0.062,-0.062 c -0.1771,-0.49769 -0.44447,-1.02978 -0.8408,-1.39275 -1.940636,-1.77714 -5.2775462,-0.75991 -5.6215762,1.94118 -0.0572,0.44898 -0.0202,0.912 0.0991,1.34779 0.14105,0.51598 0.43054,0.98968 0.7822702,1.38923 0.45069,0.51193 1.08622,0.74014 1.70338,0.96447 m 7.041846,-1.08576 c -0.0689,0.45193 -0.0156,0.89987 -0.1373,1.35167 -0.31647,1.17378 -1.27544,2.14199 -2.45618,2.4452 -0.55577,0.14269 -1.07265,0.0529 -1.62536,0.11184 0.1859,0.59875 0.42689,1.15267 0.86907,1.61264 1.98176,2.06131 5.55034,0.61423 5.70203,-2.17638 0.0467,-0.85965 -0.2782,-1.63136 -0.79238,-2.29897 -0.3958,-0.51387 -0.98017,-0.79033 -1.55982,-1.04598 m -5.2333,1.57279 c 0.5272,0.70482 1.41719,1.06489 2.27622,0.8058 1.28149,-0.38646 1.95,-2.03202 1.11751,-3.14483 -0.56856,-0.76002 -1.52159,-1.10831 -2.43132,-0.77477 -1.217336,0.44633 -1.750756,2.05984 -0.96241,3.1138 m 6.13292,-2.78262 0.062,-0.062 c -0.0618,-0.57584 0.0591,-1.23415 0.27919,-1.76821 -0.57672,-0.36204 -0.97186,-0.75721 -1.33391,-1.33393 l -1.83027,0.34125 0.39176,1.46953 0.60081,0.578 0.36472,0.3798 z"
       id="path1623"
       sodipodi:nodetypes="cccccccsccccsccccsccscsccssccccccscccccccscccccccccsccccccccccccccccccccccccccccccccccccc" />
    <g
       id="g1306"
       transform="matrix(0.71898149,0,0,0.71898149,-151.81663,-416.33177)">
      <path
         d="m 280.16709,594.7861 c -0.16591,-0.41569 -0.41568,-0.80264 -0.83025,-1.16305 -0.58151,-0.46985 -1.19068,-0.66333 -1.9933,-0.66333 -1.71692,0 -2.60245,1.02374 -2.60245,2.21442 0,0.55276 0.19343,1.52234 1.9933,2.24204 l 1.854,0.74734 c 3.40508,1.38415 4.347,3.32329 4.347,5.42602 0,3.51675 -2.49189,5.92462 -5.95226,5.92462 -2.13148,0 -3.40508,-0.80264 -4.347,-1.85511 -0.9961,-1.10665 -1.43831,-2.32495 -1.54998,-3.59855 l 2.79594,-0.60915 c 0,0.91428 0.33386,1.7722 0.77609,2.35371 0.52512,0.66442 1.30012,1.10665 2.40787,1.10665 1.71692,0 3.04577,-1.24484 3.04577,-3.10106 0,-1.88164 -1.4394,-2.65773 -2.65773,-3.15523 l -1.77219,-0.74734 c -1.52234,-0.63679 -3.76438,-1.91039 -3.76438,-4.67866 0,-2.4919 1.93802,-4.87324 5.39727,-4.87324 1.9933,0 3.12871,0.74845 3.71022,1.24593 0.4986,0.44333 1.02483,1.08011 1.41178,1.85623 z"
         style="fill:#dcb000;fill-opacity:1;fill-rule:nonzero;stroke:none;stroke-width:1.10554"
         id="path1753" />
      <path
         d="m 298.88366,593.34711 h -7.36405 v 4.67757 h 7.14183 v 2.65883 h -7.14183 v 5.81296 h 7.36405 v 2.65772 h -10.18871 v -18.46481 h 10.18871 z"
         style="fill:#dcb000;fill-opacity:1;fill-rule:nonzero;stroke:none;stroke-width:1.10554"
         id="path1757" />
      <path
         d="m 313.28216,594.7861 c -0.16591,-0.41569 -0.41568,-0.80264 -0.83025,-1.16305 -0.58153,-0.46985 -1.19068,-0.66333 -1.9933,-0.66333 -1.71692,0 -2.60247,1.02374 -2.60247,2.21442 0,0.55276 0.19342,1.52234 1.9933,2.24204 l 1.854,0.74734 c 3.40508,1.38415 4.34702,3.32329 4.34702,5.42602 0,3.51675 -2.49192,5.92462 -5.95226,5.92462 -2.13151,0 -3.40508,-0.80264 -4.347,-1.85511 -0.9961,-1.10665 -1.43831,-2.32495 -1.54998,-3.59855 l 2.79592,-0.60915 c 0,0.91428 0.33277,1.7722 0.77609,2.35371 0.52514,0.66442 1.30012,1.10665 2.40789,1.10665 1.71689,0 3.04577,-1.24484 3.04577,-3.10106 0,-1.88164 -1.43943,-2.65773 -2.65773,-3.15523 l -1.77219,-0.74734 c -1.52234,-0.63679 -3.76438,-1.91039 -3.76438,-4.67866 0,-2.4919 1.93802,-4.87324 5.39727,-4.87324 1.9933,0 3.12868,0.74845 3.71022,1.24593 0.49859,0.44333 1.02483,1.08011 1.41176,1.85623 z"
         style="fill:#dcb000;fill-opacity:1;fill-rule:nonzero;stroke:none;stroke-width:1.10554"
         id="path1761" />
      <path
         d="m 332.10939,604.69685 h -7.89028 l -2.02094,4.45756 h -3.04577 l 9.19261,-19.54494 8.74817,19.54494 h -3.04577 z m -1.13541,-2.65772 -2.73955,-6.25628 -2.8523,6.25628 z"
         style="fill:#dcb000;fill-opacity:1;fill-rule:nonzero;stroke:none;stroke-width:1.10554"
         id="path1765" />
      <path
         d="m 340.52811,609.15441 3.87493,-19.85005 6.42322,14.34111 6.47851,-14.34111 3.48798,19.85005 h -2.87883 l -1.88275,-11.12952 -5.36963,11.98743 -5.31656,-12.01395 -1.93802,11.15604 z"
         style="fill:#dcb000;fill-opacity:1;fill-rule:nonzero;stroke:none;stroke-width:1.10554"
         id="path1769" />
      <path
         d="m 376.52067,593.34711 h -7.36402 v 4.67757 h 7.14292 v 2.65883 h -7.14292 v 5.81296 h 7.36402 v 2.65772 h -10.18648 v -18.46481 h 10.18648 z"
         style="fill:#dcb000;fill-opacity:1;fill-rule:nonzero;stroke:none;stroke-width:1.10554"
         id="path1773" />
      <path
         d="m 383.76532,590.68938 5.09324,15.66778 6.67198,-16.66388 6.25738,16.66388 5.78532,-15.66778 h 1.32887 l -7.11419,19.15687 -6.25738,-16.77664 -6.86545,16.77664 -6.22864,-19.15687 z"
         style="fill:#dcb000;fill-opacity:1;fill-rule:nonzero;stroke:none;stroke-width:1.10554"
         id="path1777" />
      <path
         d="m 421.0316,603.09182 h -7.86265 l -2.46314,6.06281 h -1.32999 l 7.77973,-19.0198 7.66918,19.0198 h -1.32888 z m -0.44332,-1.10775 -3.46037,-8.74708 -3.51563,8.74708 z"
         style="fill:#dcb000;fill-opacity:1;fill-rule:nonzero;stroke:none;stroke-width:1.10554"
         id="path1781" />
      <path
         d="m 430.58548,590.68938 v 17.35816 h 5.14965 v 1.10665 h -6.36685 v -18.46481 z"
         style="fill:#dcb000;fill-opacity:1;fill-rule:nonzero;stroke:none;stroke-width:1.10554"
         id="path1785" />
      <path
         d="m 440.94037,590.68938 v 17.35816 h 5.14962 v 1.10665 h -6.36794 v -18.46481 z"
         style="fill:#dcb000;fill-opacity:1;fill-rule:nonzero;stroke:none;stroke-width:1.10554"
         id="path1789" />
      <path
         d="m 460.04419,591.79658 h -7.64042 v 6.6996 h 7.4746 v 1.10777 h -7.4746 v 8.44304 h 7.64042 v 1.10777 h -8.85763 v -18.46594 h 8.85763 z"
         style="fill:#dcb000;fill-opacity:1;fill-rule:nonzero;stroke:none;stroke-width:1.10554"
         id="path1793" />
      <path
         d="m 470.70517,591.79658 v 17.35818 h -1.21941 v -17.35818 h -4.78812 v -1.10776 h 10.79677 v 1.10776 z"
         style="fill:#dcb000;fill-opacity:1;fill-rule:nonzero;stroke:none;stroke-width:1.10554"
         id="path1797" />
    </g>
  </g>
</svg>
