<?xml version="1.0" encoding="UTF-8" standalone="no"?>
<svg
   width="742"
   height="112"
   viewBox="0 0 196.32084 29.633333"
   version="1.1"
   id="svg73"
   inkscape:version="1.1.1 (3bf5ae0d25, 2021-09-20)"
   sodipodi:docname="app-top-icon.svg"
   xmlns:inkscape="http://www.inkscape.org/namespaces/inkscape"
   xmlns:sodipodi="http://sodipodi.sourceforge.net/DTD/sodipodi-0.dtd"
   xmlns="http://www.w3.org/2000/svg"
   xmlns:svg="http://www.w3.org/2000/svg"
   xmlns:rdf="http://www.w3.org/1999/02/22-rdf-syntax-ns#"
   xmlns:cc="http://creativecommons.org/ns#"
   xmlns:dc="http://purl.org/dc/elements/1.1/">
  <defs
     id="defs67" />
  <sodipodi:namedview
     id="base"
     pagecolor="#ffffff"
     bordercolor="#666666"
     borderopacity="1.0"
     inkscape:pageopacity="0.0"
     inkscape:pageshadow="2"
     inkscape:zoom="1.4"
     inkscape:cx="308.92857"
     inkscape:cy="133.21429"
     inkscape:document-units="mm"
     inkscape:current-layer="layer1"
     inkscape:document-rotation="0"
     showgrid="false"
     inkscape:window-width="3657"
     inkscape:window-height="1233"
     inkscape:window-x="138"
     inkscape:window-y="805"
     inkscape:window-maximized="0"
     units="px"
     inkscape:pagecheckerboard="0" />
  <metadata
     id="metadata70">
    <rdf:RDF>
      <cc:Work
         rdf:about="">
        <dc:format>image/svg+xml</dc:format>
        <dc:type
           rdf:resource="http://purl.org/dc/dcmitype/StillImage" />
      </cc:Work>
    </rdf:RDF>
  </metadata>
  <g
     inkscape:label="Calque 1"
     inkscape:groupmode="layer"
     id="layer1">
    <path
       style="fill:#dcb000;fill-opacity:1;stroke:none;stroke-width:0.023304"
       d="m 22.503208,18.579143 c -1.637526,-1.28844 -0.757012,-3.964026 1.148465,-4.388276 0.542026,-0.120666 1.108432,-0.05185 1.612902,0.176814 0.386939,0.17539 0.680822,0.437396 1.119324,0.495514 0.255319,0.03389 0.588102,0.03208 0.825647,-0.08056 0.252939,-0.119896 0.351943,-0.472375 0.682086,-0.174784 0.09389,-0.09387 0.268211,-0.212409 0.317192,-0.33707 0.03862,-0.09814 -0.07476,-0.219999 -0.06235,-0.332363 0.03485,-0.315615 0.395761,-0.375465 0.602067,-0.187454 l 0.296618,-0.296604 c -0.310505,-0.370312 0.12133,-0.778382 0.494346,-0.494346 l 3.14774,-3.1477395 1.466576,-1.4665684 c 0.226316,-0.2263156 0.461895,-0.5498846 0.740327,-0.7097743 0.523466,-0.300548 1.312083,0.3009772 1.29841,0.8730477 -0.0095,0.3961334 -0.398725,0.6684744 -0.654554,0.9243033 l 0.609695,0.6096892 c 0.05184,-0.051845 0.127386,-0.1618812 0.204749,-0.1708637 0.06403,-0.00712 0.117819,0.06514 0.157781,0.1049588 0.09498,0.09459 0.384888,0.2967889 0.399273,0.4331409 0.01514,0.143227 -0.352459,0.409871 -0.448712,0.506118 -0.13624,0.136246 -0.386348,0.500157 -0.586216,0.520008 -0.132156,0.01312 -0.269401,-0.189191 -0.353048,-0.272822 L 34.66465,10.306625 c -0.0548,0.0548 -0.161377,0.129044 -0.161388,0.214215 1.1e-5,0.09478 0.133468,0.186312 0.194349,0.247181 l 0.626172,0.626189 c 0.09095,0.09093 0.30854,0.233954 0.247952,0.381711 -0.08871,0.216409 -0.396766,0.426258 -0.561043,0.590498 -0.05519,0.0552 -0.127779,0.156804 -0.214215,0.156814 -0.123604,-10e-6 -0.535312,-0.414699 -0.537915,-0.538286 -0.0016,-0.0888 0.118478,-0.171305 0.175395,-0.228234 l -0.609705,-0.609689 -2.323808,2.323808 c -0.202609,0.202609 -0.528694,0.429466 -0.668589,0.679059 -0.0579,0.103333 0.06021,0.235824 0.04781,0.351444 -0.03373,0.313282 -0.390024,0.363751 -0.598593,0.188898 l -0.296608,0.296608 c 0.309952,0.34397 -0.137702,0.802434 -0.477879,0.477879 l -0.379003,0.379003 c 0.117442,0.140108 0.159465,0.338711 0.02518,0.48659 -0.07238,0.07965 -0.175857,0.103812 -0.216658,0.211777 -0.09692,0.256466 -0.103748,0.575391 -0.06435,0.842715 0.06085,0.412542 0.31451,0.700428 0.482723,1.066251 0.214523,0.466576 0.294378,0.98056 0.210927,1.488722 -0.233338,1.420602 -1.652601,2.393501 -3.062902,2.088314 -0.543004,-0.117527 -0.961033,-0.410725 -1.346256,-0.795943 -0.338371,0.338371 -0.73779,0.576533 -1.224769,0.620808 -1.353639,0.123067 -2.391387,-1.238763 -1.951286,-2.511554 0.105144,-0.304072 0.299493,-0.538722 0.523046,-0.76227 m 0.367465,2.038376 c 0.383927,0.513224 1.496977,0.685719 1.791216,-0.04101 0.06315,-0.155889 -0.08878,-0.449598 -0.115168,-0.613376 -0.02321,-0.144203 0.0032,-0.354158 -0.08503,-0.475239 -0.182577,-0.24981 -0.373106,-0.25713 -0.658363,-0.297379 -0.17225,-0.02433 -0.443324,-0.175602 -0.609302,-0.138254 -0.132012,0.02964 -0.235956,0.167502 -0.311806,0.268424 -0.284205,0.37811 -0.298176,0.913682 -0.01158,1.296838 m 0.950797,-2.203153 c 0.03118,-0.295333 -0.03166,-0.571491 0.05456,-0.868217 0.237784,-0.818019 1.082149,-1.510692 1.972267,-1.356369 l 0.03293,-0.03293 c -0.09408,-0.26437 -0.2361,-0.547014 -0.446629,-0.739822 -1.030856,-0.944008 -2.803406,-0.40366 -2.986153,1.031145 -0.03038,0.238496 -0.01073,0.48445 0.05264,0.71594 0.07492,0.274086 0.228701,0.525713 0.415538,0.737952 0.239404,0.271934 0.576995,0.393158 0.904827,0.512321 m 3.740594,-0.57675 c -0.0366,0.240063 -0.0083,0.478007 -0.07293,0.718 -0.168108,0.623507 -0.677508,1.137815 -1.304711,1.298879 -0.295222,0.0758 -0.569786,0.0281 -0.863383,0.05941 0.09875,0.318053 0.226762,0.612293 0.461646,0.856627 1.052701,1.094957 2.948313,0.326276 3.02889,-1.156083 0.02481,-0.456641 -0.147779,-0.86657 -0.420909,-1.221201 -0.210247,-0.272965 -0.520661,-0.419819 -0.828568,-0.555619 m -2.779903,0.835458 c 0.280046,0.374397 0.752804,0.565664 1.209116,0.428037 0.680722,-0.205286 1.035831,-1.079399 0.593616,-1.670518 -0.302016,-0.403719 -0.808261,-0.588729 -1.291505,-0.411554 -0.646643,0.237088 -0.929993,1.094177 -0.511227,1.654035 m 3.257776,-1.478114 0.03293,-0.03293 c -0.03283,-0.305883 0.03139,-0.655574 0.148305,-0.939264 -0.306351,-0.192314 -0.516247,-0.402227 -0.708567,-0.708577 l -0.97223,0.18127 0.208101,0.780607 0.319147,0.307031 0.193738,0.201748 z"
       id="path1623"
       sodipodi:nodetypes="cccccccsccccsccccsccscsccssccccccscccccccscccccccccsccccccccccccccccccccccccccccccccccccc" />
    <g
       id="g1306"
       transform="matrix(0.71898149,0,0,0.71898149,-151.81663,-416.33177)">
      <path
         d="m 280.16709,594.7861 c -0.16591,-0.41569 -0.41568,-0.80264 -0.83025,-1.16305 -0.58151,-0.46985 -1.19068,-0.66333 -1.9933,-0.66333 -1.71692,0 -2.60245,1.02374 -2.60245,2.21442 0,0.55276 0.19343,1.52234 1.9933,2.24204 l 1.854,0.74734 c 3.40508,1.38415 4.347,3.32329 4.347,5.42602 0,3.51675 -2.49189,5.92462 -5.95226,5.92462 -2.13148,0 -3.40508,-0.80264 -4.347,-1.85511 -0.9961,-1.10665 -1.43831,-2.32495 -1.54998,-3.59855 l 2.79594,-0.60915 c 0,0.91428 0.33386,1.7722 0.77609,2.35371 0.52512,0.66442 1.30012,1.10665 2.40787,1.10665 1.71692,0 3.04577,-1.24484 3.04577,-3.10106 0,-1.88164 -1.4394,-2.65773 -2.65773,-3.15523 l -1.77219,-0.74734 c -1.52234,-0.63679 -3.76438,-1.91039 -3.76438,-4.67866 0,-2.4919 1.93802,-4.87324 5.39727,-4.87324 1.9933,0 3.12871,0.74845 3.71022,1.24593 0.4986,0.44333 1.02483,1.08011 1.41178,1.85623 z"
         style="fill:#dcb000;fill-opacity:1;fill-rule:nonzero;stroke:none;stroke-width:1.10554"
         id="path1753" />
      <path
         d="m 298.88366,593.34711 h -7.36405 v 4.67757 h 7.14183 v 2.65883 h -7.14183 v 5.81296 h 7.36405 v 2.65772 h -10.18871 v -18.46481 h 10.18871 z"
         style="fill:#dcb000;fill-opacity:1;fill-rule:nonzero;stroke:none;stroke-width:1.10554"
         id="path1757" />
      <path
         d="m 313.28216,594.7861 c -0.16591,-0.41569 -0.41568,-0.80264 -0.83025,-1.16305 -0.58153,-0.46985 -1.19068,-0.66333 -1.9933,-0.66333 -1.71692,0 -2.60247,1.02374 -2.60247,2.21442 0,0.55276 0.19342,1.52234 1.9933,2.24204 l 1.854,0.74734 c 3.40508,1.38415 4.34702,3.32329 4.34702,5.42602 0,3.51675 -2.49192,5.92462 -5.95226,5.92462 -2.13151,0 -3.40508,-0.80264 -4.347,-1.85511 -0.9961,-1.10665 -1.43831,-2.32495 -1.54998,-3.59855 l 2.79592,-0.60915 c 0,0.91428 0.33277,1.7722 0.77609,2.35371 0.52514,0.66442 1.30012,1.10665 2.40789,1.10665 1.71689,0 3.04577,-1.24484 3.04577,-3.10106 0,-1.88164 -1.43943,-2.65773 -2.65773,-3.15523 l -1.77219,-0.74734 c -1.52234,-0.63679 -3.76438,-1.91039 -3.76438,-4.67866 0,-2.4919 1.93802,-4.87324 5.39727,-4.87324 1.9933,0 3.12868,0.74845 3.71022,1.24593 0.49859,0.44333 1.02483,1.08011 1.41176,1.85623 z"
         style="fill:#dcb000;fill-opacity:1;fill-rule:nonzero;stroke:none;stroke-width:1.10554"
         id="path1761" />
      <path
         d="m 332.10939,604.69685 h -7.89028 l -2.02094,4.45756 h -3.04577 l 9.19261,-19.54494 8.74817,19.54494 h -3.04577 z m -1.13541,-2.65772 -2.73955,-6.25628 -2.8523,6.25628 z"
         style="fill:#dcb000;fill-opacity:1;fill-rule:nonzero;stroke:none;stroke-width:1.10554"
         id="path1765" />
      <path
         d="m 340.52811,609.15441 3.87493,-19.85005 6.42322,14.34111 6.47851,-14.34111 3.48798,19.85005 h -2.87883 l -1.88275,-11.12952 -5.36963,11.98743 -5.31656,-12.01395 -1.93802,11.15604 z"
         style="fill:#dcb000;fill-opacity:1;fill-rule:nonzero;stroke:none;stroke-width:1.10554"
         id="path1769" />
      <path
         d="m 376.52067,593.34711 h -7.36402 v 4.67757 h 7.14292 v 2.65883 h -7.14292 v 5.81296 h 7.36402 v 2.65772 h -10.18648 v -18.46481 h 10.18648 z"
         style="fill:#dcb000;fill-opacity:1;fill-rule:nonzero;stroke:none;stroke-width:1.10554"
         id="path1773" />
      <path
         d="m 383.76532,590.68938 5.09324,15.66778 6.67198,-16.66388 6.25738,16.66388 5.78532,-15.66778 h 1.32887 l -7.11419,19.15687 -6.25738,-16.77664 -6.86545,16.77664 -6.22864,-19.15687 z"
         style="fill:#dcb000;fill-opacity:1;fill-rule:nonzero;stroke:none;stroke-width:1.10554"
         id="path1777" />
      <path
         d="m 421.0316,603.09182 h -7.86265 l -2.46314,6.06281 h -1.32999 l 7.77973,-19.0198 7.66918,19.0198 h -1.32888 z m -0.44332,-1.10775 -3.46037,-8.74708 -3.51563,8.74708 z"
         style="fill:#dcb000;fill-opacity:1;fill-rule:nonzero;stroke:none;stroke-width:1.10554"
         id="path1781" />
      <path
         d="m 430.58548,590.68938 v 17.35816 h 5.14965 v 1.10665 h -6.36685 v -18.46481 z"
         style="fill:#dcb000;fill-opacity:1;fill-rule:nonzero;stroke:none;stroke-width:1.10554"
         id="path1785" />
      <path
         d="m 440.94037,590.68938 v 17.35816 h 5.14962 v 1.10665 h -6.36794 v -18.46481 z"
         style="fill:#dcb000;fill-opacity:1;fill-rule:nonzero;stroke:none;stroke-width:1.10554"
         id="path1789" />
      <path
         d="m 460.04419,591.79658 h -7.64042 v 6.6996 h 7.4746 v 1.10777 h -7.4746 v 8.44304 h 7.64042 v 1.10777 h -8.85763 v -18.46594 h 8.85763 z"
         style="fill:#dcb000;fill-opacity:1;fill-rule:nonzero;stroke:none;stroke-width:1.10554"
         id="path1793" />
      <path
         d="m 470.70517,591.79658 v 17.35818 h -1.21941 v -17.35818 h -4.78812 v -1.10776 h 10.79677 v 1.10776 z"
         style="fill:#dcb000;fill-opacity:1;fill-rule:nonzero;stroke:none;stroke-width:1.10554"
         id="path1797" />
    </g>
  </g>
</svg>
