<?xml version="1.0" encoding="UTF-8" standalone="no"?>
<!-- Created with Inkscape (http://www.inkscape.org/) -->

<svg
   width="26.416061mm"
   height="16.144583mm"
   viewBox="0 0 26.416061 16.144583"
   version="1.1"
   id="svg83598"
   inkscape:version="1.1.1 (3bf5ae0d25, 2021-09-20)"
   sodipodi:docname="logo2.svg"
   xmlns:inkscape="http://www.inkscape.org/namespaces/inkscape"
   xmlns:sodipodi="http://sodipodi.sourceforge.net/DTD/sodipodi-0.dtd"
   xmlns:xlink="http://www.w3.org/1999/xlink"
   xmlns="http://www.w3.org/2000/svg"
   xmlns:svg="http://www.w3.org/2000/svg">
  <sodipodi:namedview
     id="namedview83600"
     pagecolor="#ffffff"
     bordercolor="#eeeeee"
     borderopacity="1"
     inkscape:pageshadow="0"
     inkscape:pageopacity="0"
     inkscape:pagecheckerboard="0"
     inkscape:document-units="mm"
     showgrid="false"
     inkscape:snap-global="false"
     inkscape:zoom="0.45254834"
     inkscape:cx="437.52232"
     inkscape:cy="884.98833"
     inkscape:window-width="2198"
     inkscape:window-height="1687"
     inkscape:window-x="429"
     inkscape:window-y="406"
     inkscape:window-maximized="0"
     inkscape:current-layer="layer1"
     fit-margin-top="0"
     fit-margin-left="0"
     fit-margin-right="0"
     fit-margin-bottom="0" />
  <defs
     id="defs83595">
    <linearGradient
       inkscape:collect="always"
       id="linearGradient4355">
      <stop
         style="stop-color:#d4aa00;stop-opacity:1;"
         offset="0"
         id="stop4351" />
      <stop
         style="stop-color:#f9c800;stop-opacity:1"
         offset="1"
         id="stop4353" />
    </linearGradient>
    <linearGradient
       inkscape:collect="always"
       id="linearGradient4251">
      <stop
         style="stop-color:#d4aa00;stop-opacity:1;"
         offset="0"
         id="stop4247" />
      <stop
         style="stop-color:#e7b900;stop-opacity:1"
         offset="1"
         id="stop4249" />
    </linearGradient>
    <linearGradient
       inkscape:collect="always"
       xlink:href="#linearGradient4251"
       id="linearGradient108657"
       gradientUnits="userSpaceOnUse"
       gradientTransform="matrix(1.0524082,0,0,1.0524082,96.756385,80.725386)"
       x1="370.86459"
       y1="93.043076"
       x2="376.86948"
       y2="93.043076" />
    <linearGradient
       inkscape:collect="always"
       xlink:href="#linearGradient4251"
       id="linearGradient108659"
       gradientUnits="userSpaceOnUse"
       x1="86.745728"
       y1="112.34856"
       x2="95.44545"
       y2="112.34856" />
    <linearGradient
       inkscape:collect="always"
       xlink:href="#linearGradient4251"
       id="linearGradient108661"
       gradientUnits="userSpaceOnUse"
       x1="86.745728"
       y1="112.34856"
       x2="95.44545"
       y2="112.34856" />
    <linearGradient
       inkscape:collect="always"
       xlink:href="#linearGradient4251"
       id="linearGradient108663"
       gradientUnits="userSpaceOnUse"
       x1="86.745728"
       y1="112.34856"
       x2="95.44545"
       y2="112.34856" />
    <linearGradient
       inkscape:collect="always"
       xlink:href="#linearGradient4355"
       id="linearGradient108665"
       gradientUnits="userSpaceOnUse"
       gradientTransform="rotate(90,24.742048,334.41821)"
       x1="132.61195"
       y1="115.63131"
       x2="156.77992"
       y2="115.63131" />
    <linearGradient
       inkscape:collect="always"
       xlink:href="#linearGradient4355"
       id="linearGradient108667"
       gradientUnits="userSpaceOnUse"
       gradientTransform="rotate(180,191.87295,276.47119)"
       x1="132.61195"
       y1="115.63131"
       x2="156.77992"
       y2="115.63131" />
    <linearGradient
       inkscape:collect="always"
       xlink:href="#linearGradient4251"
       id="linearGradient108669"
       gradientUnits="userSpaceOnUse"
       gradientTransform="translate(115.63964,334.26474)"
       x1="130.36375"
       y1="115.69298"
       x2="145.1277"
       y2="115.69298" />
    <linearGradient
       inkscape:collect="always"
       xlink:href="#linearGradient4355"
       id="linearGradient108671"
       gradientUnits="userSpaceOnUse"
       gradientTransform="translate(115.63964,334.26474)"
       x1="132.61195"
       y1="115.63131"
       x2="156.77992"
       y2="115.63131" />
  </defs>
  <g
     inkscape:label="Calque 1"
     inkscape:groupmode="layer"
     id="layer1"
     transform="translate(-246.0035,-441.063)">
    <g
       id="g110772">
      <path
         style="color:#000000;fill:url(#linearGradient108671);fill-opacity:1;stroke-linecap:round;-inkscape-stroke:none;paint-order:markers stroke fill"
         d="m 254.21448,442.58453 c -0.56373,2.6e-4 -1.02036,0.45776 -1.01953,1.02149 2.6e-4,0.56296 0.45657,1.01927 1.01953,1.01953 h 10.89454 c 2.93769,0 5.26953,2.33379 5.26953,5.27148 0,2.9377 -2.33184,5.26953 -5.26953,5.26953 h -9.73243 c -0.56449,-8.2e-4 -1.02231,0.457 -1.02148,1.02149 2.6e-4,0.56373 0.45776,1.02035 1.02148,1.01953 h 9.73243 c 4.03257,0 7.31054,-3.27798 7.31054,-7.31055 0,-4.03256 -3.27797,-7.3125 -7.31054,-7.3125 z m -1.99218,12.58203 c -0.56373,2.6e-4 -1.02036,0.45776 -1.01953,1.02149 2.6e-4,0.56296 0.45657,1.01927 1.01953,1.01953 h 0.25976 c 0.56296,-2.6e-4 1.01927,-0.45657 1.01953,-1.01953 8.2e-4,-0.56373 -0.4558,-1.02123 -1.01953,-1.02149 z"
         id="path108637"
         sodipodi:nodetypes="cccssscccssscccccccc" />
      <path
         id="path108639"
         style="color:#000000;fill:url(#linearGradient108669);fill-opacity:1;stroke-width:1;stroke-linecap:round;-inkscape-stroke:none;paint-order:markers stroke fill"
         d="m 247.02308,446.83059 a 1.02,1.02 0 0 0 -1.01958,1.01957 1.02,1.02 0 0 0 1.01958,1.02113 h 3.63699 5.45083 c 0.6198,0 1.08624,0.46644 1.08624,1.08624 0,0.6198 -0.46644,1.08779 -1.08624,1.08779 h -0.83561 -3.63699 a 1.02,1.02 0 0 0 -1.01957,1.01957 1.02,1.02 0 0 0 1.01957,1.01958 h 3.63699 0.83561 4.65656 v -0.23926 a 5.2314453,5.2314453 0 0 1 -0.91416,-2.95331 5.2314453,5.2314453 0 0 1 0.91416,-2.95279 v -0.10852 h -4.65656 -5.45083 z m 0.8046,4.21473 a 1.02,1.02 0 0 0 -1.01958,1.01957 1.02,1.02 0 0 0 1.01958,1.01958 h 0.55087 a 1.02,1.02 0 0 0 1.02165,-1.01958 1.02,1.02 0 0 0 -1.02165,-1.01957 z" />
      <path
         style="color:#000000;fill:url(#linearGradient108667);fill-opacity:1;stroke-linecap:round;-inkscape-stroke:none;paint-order:markers stroke fill"
         d="m 251.33757,444.6226 c 0.5645,8.3e-4 1.02231,-0.457 1.02148,-1.02149 -2.6e-4,-0.56373 -0.45775,-1.02035 -1.02148,-1.01953 h -3.03521 c -0.56373,-8.2e-4 -1.02123,0.4558 -1.02149,1.01953 -8.3e-4,0.56449 0.45699,1.02232 1.02149,1.02149 z"
         id="path108645"
         sodipodi:nodetypes="ccccccc" />
      <path
         style="color:#000000;fill:url(#linearGradient108665);fill-opacity:1;stroke-linecap:round;-inkscape-stroke:none;paint-order:markers stroke fill"
         d="m 250.84047,442.08448 c 8.3e-4,-0.5645 -0.457,-1.02231 -1.02149,-1.02148 -0.56373,2.6e-4 -1.02035,0.45775 -1.01953,1.02148 v 3.03521 c -8.2e-4,0.56373 0.4558,1.02123 1.01953,1.02149 0.56449,8.3e-4 1.02232,-0.45699 1.02149,-1.02149 z"
         id="path108647"
         sodipodi:nodetypes="ccccccc" />
      <g
         id="g108653"
         style="fill:url(#linearGradient108663);fill-opacity:1"
         transform="matrix(0.87186949,0.69339701,-0.69339701,0.87186949,263.45633,289.39139)">
        <path
           style="color:#000000;fill:url(#linearGradient108659);fill-opacity:1;stroke-width:1.60045;stroke-linecap:round;-inkscape-stroke:none"
           d="m 91.102209,115.52423 -0.01319,-6.35185"
           id="path108649" />
        <path
           id="path108651"
           style="color:#000000;fill:url(#linearGradient108661);fill-opacity:1;stroke-width:4.00066;stroke-linecap:round;-inkscape-stroke:none"
           d="m 417.01562,635.70508 -13.40039,16.92383 c -1.09661,1.38437 -0.86502,3.39529 0.51758,4.49414 1.38469,1.09794 3.39711,0.86628 4.4961,-0.51758 l 13.39648,-16.91797 3.06251,-4.76562 c 0.0749,-1.05417 -0.37534,-2.07737 -1.20312,-2.73438 -0.83161,-0.65536 -1.93346,-0.85716 -2.94336,-0.53906 z"
           transform="matrix(0.19563289,-0.15558666,0.15558666,0.19563289,-90.19798,50.647035)"
           sodipodi:nodetypes="ccccccccc" />
      </g>
      <rect
         style="fill:url(#linearGradient108657);fill-opacity:1;stroke-width:1.3313;stroke-linecap:round;paint-order:markers stroke fill"
         id="rect108655"
         width="6.3196025"
         height="2.1065342"
         x="487.05731"
         y="177.59142"
         rx="0.50152606"
         ry="0.50152606"
         transform="rotate(39.246667)" />
    </g>
  </g>
</svg>
